<svg xmlns="http://www.w3.org/2000/svg" xmlns:xlink="http://www.w3.org/1999/xlink" width="610.997" height="610.998" viewBox="0 0 610.997 610.998">
  <defs>
    <linearGradient id="linear-gradient" x1="0.299" y1="0.756" x2="0.728" y2="0.252" gradientUnits="objectBoundingBox">
      <stop offset="0" stop-color="#fff"/>
      <stop offset="1" stop-color="#fff" stop-opacity="0"/>
    </linearGradient>
  </defs>
  <g id="shape_7" transform="translate(-0.001 -0.002)" opacity="0.5">
    <g id="Group_578" data-name="Group 578" opacity="0.5">
      <g id="Group_577" data-name="Group 577">
        <path id="Subtraction_2" data-name="Subtraction 2" d="M223.5,0a225.279,225.279,0,0,0-45.094,4.551A223.407,223.407,0,0,0,4.541,178.457a225.679,225.679,0,0,0,0,90.086A223.414,223.414,0,0,0,178.453,442.459a225.68,225.68,0,0,0,90.086,0,223.412,223.412,0,0,0,173.92-173.912,225.678,225.678,0,0,0,0-90.086A223.4,223.4,0,0,0,268.543,4.541,225.149,225.149,0,0,0,223.5,0Zm0,380.888c-86.784,0-157.388-70.6-157.388-157.388S136.716,66.112,223.5,66.112s157.387,70.6,157.387,157.387S310.284,380.888,223.5,380.888Z" transform="translate(529 529) rotate(180)" opacity="0.51" fill="url(#linear-gradient)"/>
        <path id="Subtraction_3" data-name="Subtraction 3" d="M268.5,0a270.64,270.64,0,0,0-54.175,5.468A268.4,268.4,0,0,0,5.455,214.388a271.118,271.118,0,0,0,0,108.224A268.405,268.405,0,0,0,214.388,531.545a271.12,271.12,0,0,0,108.224,0A268.4,268.4,0,0,0,531.545,322.612a271.116,271.116,0,0,0,0-108.224A268.4,268.4,0,0,0,322.612,5.455,270.477,270.477,0,0,0,268.5,0Zm0,457.576c-104.257,0-189.077-84.82-189.077-189.077S164.243,79.423,268.5,79.423,457.576,164.243,457.576,268.5,372.757,457.576,268.5,457.576Z" transform="translate(574 574) rotate(180)" opacity="0.51" fill="url(#linear-gradient)"/>
        <path id="Subtraction_6" data-name="Subtraction 6" d="M305.5,0a307.75,307.75,0,0,0-61.569,6.206A305.384,305.384,0,0,0,6.208,243.93a308.5,308.5,0,0,0,0,123.138A305.383,305.383,0,0,0,243.931,604.792a308.494,308.494,0,0,0,123.138,0A305.381,305.381,0,0,0,604.792,367.069a308.489,308.489,0,0,0,0-123.138A305.38,305.38,0,0,0,367.07,6.207,307.746,307.746,0,0,0,305.5,0Zm0,557.232a253.738,253.738,0,0,1-50.787-5.126A251.643,251.643,0,0,1,58.886,356.232a254.178,254.178,0,0,1,0-101.466A251.643,251.643,0,0,1,254.771,58.886a254.179,254.179,0,0,1,101.466,0A251.641,251.641,0,0,1,552.113,254.767a254.179,254.179,0,0,1,0,101.466A251.644,251.644,0,0,1,356.229,552.114a253.6,253.6,0,0,1-50.729,5.118Z" transform="translate(611 611) rotate(180)" opacity="0.51" fill="url(#linear-gradient)"/>
      </g>
    </g>
  </g>
</svg>
