<svg xmlns="http://www.w3.org/2000/svg" xmlns:xlink="http://www.w3.org/1999/xlink" width="390.88" height="240.929" xmlns:v="https://vecta.io/nano"><style><![CDATA[.B{fill:#ecf1ff}.C{fill:#9ba9b7}.D{font-size:12px}.E{font-family:SegoeUI, Segoe UI}]]></style><defs><filter id="A" x="0" y="0" width="390.88" height="240.929" filterUnits="userSpaceOnUse"><feOffset/><feGaussianBlur stdDeviation="10" result="A"/><feFlood flood-opacity=".2"/><feComposite operator="in" in2="A"/><feComposite in="SourceGraphic"/></filter><linearGradient id="B" x1=".571" y1="1.736" x2=".476" y2=".081"><stop offset=".191" stop-color="#fff"/><stop offset="1" stop-color="#fa6878"/></linearGradient><linearGradient id="C" x1=".5" y1="1.446" x2=".5" y2="-.038"><stop offset="0" stop-color="#fff"/><stop offset="1" stop-color="#fa6878"/></linearGradient><linearGradient id="D" y1="1.252" y2=".252" xlink:href="#C"/><linearGradient id="E" y1="1.3" y2=".3" xlink:href="#C"/><linearGradient id="F" x1=".5" y1="1.322" x2=".5" y2=".322"><stop offset=".085" stop-color="#fff"/><stop offset="1" stop-color="#fa6878"/></linearGradient><linearGradient id="G" y1="1.328" y2=".328" xlink:href="#F"/><linearGradient id="H" y1="1.281" y2=".281" xlink:href="#F"/><linearGradient id="I" y1="1.268" y2=".268" xlink:href="#F"/><linearGradient id="J" y1="1.389" y2=".389" xlink:href="#F"/><linearGradient id="K" y1="1.433" y2=".433" xlink:href="#F"/><path id="L" d="M2279.008 4700.628h0a5.36 5.36 0 0 1-5.359-5.359v-100.54a5.36 5.36 0 0 1 5.359-5.36h0a5.36 5.36 0 0 1 5.359 5.36v100.54a5.36 5.36 0 0 1-5.359 5.359z"/><path id="M" d="M2300.43 4700.628h0a5.36 5.36 0 0 1-5.359-5.359v-85.228a5.36 5.36 0 0 1 5.359-5.359h0a5.36 5.36 0 0 1 5.359 5.359v85.23a5.36 5.36 0 0 1-5.359 5.358z"/><path id="N" d="M2321.857 4700.628h0a5.36 5.36 0 0 1-5.359-5.359v-49.503a5.36 5.36 0 0 1 5.359-5.359h0a5.36 5.36 0 0 1 5.359 5.359v49.5a5.36 5.36 0 0 1-5.359 5.362z"/><path id="O" d="M2428.963 4700.628h0a5.36 5.36 0 0 1-5.36-5.359v-100.54a5.36 5.36 0 0 1 5.36-5.36h0a5.36 5.36 0 0 1 5.359 5.36v100.54a5.36 5.36 0 0 1-5.359 5.359z"/></defs><g transform="translate(-2182.12 -4533.081)"><g transform="translate(2182.12 4533.08)" filter="url(#A)"><path d="M324.231,208.929H60.649A33.649,33.649,0,0,1,27,175.281V61.649A33.648,33.648,0,0,1,60.649,28H324.231A33.648,33.648,0,0,1,357.88,61.649V175.282A33.65,33.65,0,0,1,324.231,208.929Z" transform="translate(3 2)" fill="#fff"/></g><g class="B"><use xlink:href="#L"/><use xlink:href="#L"/></g><path d="M2279.008 4700.628h0a5.36 5.36 0 0 1-5.359-5.359v-64.813a5.36 5.36 0 0 1 5.359-5.359h0a5.36 5.36 0 0 1 5.359 5.359v64.814a5.36 5.36 0 0 1-5.359 5.358z" fill="url(#B)"/><text class="C D E"><tspan x="2272.495" y="4713.775">10</tspan></text><g class="B"><use xlink:href="#L" x="21.422"/><use xlink:href="#L" x="21.422"/></g><use xlink:href="#M" fill="url(#C)"/><text class="C D E"><tspan x="2292.386" y="4713.775">20</tspan></text><g class="B"><use xlink:href="#L" x="42.849"/><use xlink:href="#L" x="42.849"/></g><use xlink:href="#N" fill="url(#D)"/><text class="C D E"><tspan x="2313.885" y="4713.775">30</tspan></text><g class="B"><use xlink:href="#L" x="64.267"/><use xlink:href="#L" x="64.267"/></g><use xlink:href="#M" x="42.845" fill="url(#E)"/><text class="C D E"><tspan x="2335.059" y="4713.775">40</tspan></text><g class="B"><use xlink:href="#L" x="85.69"/><use xlink:href="#L" x="85.69"/></g><path d="M2364.698 4700.628h0a5.36 5.36 0 0 1-5.359-5.359v-68.9a5.36 5.36 0 0 1 5.359-5.359h0a5.36 5.36 0 0 1 5.359 5.359v68.9a5.36 5.36 0 0 1-5.359 5.359z" fill="url(#F)"/><text class="C D E"><tspan x="2357.492" y="4713.775">50</tspan></text><g class="B"><use xlink:href="#L" x="107.112"/><use xlink:href="#L" x="107.112"/></g><use xlink:href="#N" x="64.263" fill="url(#G)"/><text class="C D E"><tspan x="2378.037" y="4713.775">60</tspan></text><g class="B"><use xlink:href="#L" x="128.532"/><use xlink:href="#L" x="128.532"/></g><path d="M2407.54 4700.628h0a5.36 5.36 0 0 1-5.359-5.359v-90.332a5.36 5.36 0 0 1 5.359-5.36h0a5.36 5.36 0 0 1 5.359 5.36v90.332a5.36 5.36 0 0 1-5.359 5.359z" fill="url(#H)"/><text class="C D E"><tspan x="2399.428" y="4713.775">70</tspan></text><g class="B"><use xlink:href="#O"/><use xlink:href="#O"/></g><path d="M2428.963 4700.628h0a5.36 5.36 0 0 1-5.36-5.359v-39.3a5.36 5.36 0 0 1 5.36-5.359h0a5.36 5.36 0 0 1 5.359 5.359v39.3a5.36 5.36 0 0 1-5.359 5.359z" fill="url(#I)"/><text class="C D E"><tspan x="2420.365" y="4713.775">80</tspan></text><g class="B"><use xlink:href="#O" x="21.422"/><use xlink:href="#O" x="21.422"/></g><path d="M2450.385 4700.628h0a5.36 5.36 0 0 1-5.36-5.359v-13.778a5.36 5.36 0 0 1 5.36-5.359h0a5.36 5.36 0 0 1 5.359 5.359v13.78a5.36 5.36 0 0 1-5.359 5.358z" fill="url(#J)"/><text class="C D E"><tspan x="2441.661" y="4713.775">90</tspan></text><g class="B"><use xlink:href="#L" x="192.802"/><use xlink:href="#L" x="192.802"/></g><use xlink:href="#N" x="149.953" fill="url(#K)"/><text class="C D E"><tspan x="2460.99" y="4713.775">100</tspan></text></g></svg>